# xmcd
#
# Track frame offsets: 
#        150
#        16125
#        31173
#        48900
#        67061
#        84512
#        101168
#
# Disc length: 1564 seconds
#
# Revision: 0
# Processed by: cddbd v1.5.2PL0 Copyright (c) Steve Scherf et al.
# Submitted via: ExactAudioCopyFreeDBPlugin 1.0
#
DISCID=50061a07
DTITLE=Two Bit Franks - Two Bit Franks
DYEAR=2013
DGENRE=Bluegrass
TTITLE0=Wild Jack
TTITLE1=Crow Wing
TTITLE2=Mamma Don't Like It
TTITLE3=A World Far Beyond
TTITLE4=It Won't Change My Mind
TTITLE5=Wake Up Call
TTITLE6=Cannonball Blues
EXTD=
EXTT0=
EXTT1=
EXTT2=
EXTT3=
EXTT4=
EXTT5=
EXTT6=
PLAYORDER=
